<svg width="24" height="24" viewBox="0 0 24 24" fill="none" xmlns="http://www.w3.org/2000/svg">
<path d="M11 2.04983V4.06183C7.054 4.55383 4 7.91983 4 11.9998C4 16.4178 7.582 19.9998 12 19.9998C13.849 19.9998 15.55 19.3728 16.906 18.3198L18.329 19.7428C16.605 21.1528 14.4 21.9998 12 21.9998C6.477 21.9998 2 17.5228 2 11.9998C2 6.81483 5.947 2.55083 11 2.04983ZM21.95 12.9998C21.75 15.0108 20.956 16.8468 19.743 18.3278L18.32 16.9058C19.18 15.7988 19.756 14.4608 19.938 12.9998H21.95ZM13.002 2.04983C17.726 2.51883 21.482 6.27583 21.952 10.9998H19.939C19.488 7.38183 16.62 4.51383 13.002 4.06183V2.04983Z" fill="#F9D24A"/>
</svg>
