<svg width="34" height="28" viewBox="0 0 34 28" fill="none" xmlns="http://www.w3.org/2000/svg">
<g clip-path="url(#clip0_2505_2214)">
<path d="M33.5176 14.0781C33.5176 14.5 33.3359 14.8926 32.9727 15.2559L21.3359 26.875C20.9727 27.2266 20.5801 27.4023 20.1582 27.4023C19.7129 27.4023 19.3438 27.2559 19.0508 26.9629C18.7578 26.6816 18.6113 26.3242 18.6113 25.8906C18.6113 25.4336 18.7578 25.0586 19.0508 24.7656L22.9707 20.7754L28.8945 15.3789L24.6406 15.6426L2.4219 15.6426C1.9648 15.6426 1.5957 15.4961 1.3145 15.2031C1.0215 14.9102 0.875001 14.5352 0.875001 14.0781C0.875001 13.6211 1.0215 13.2402 1.3145 12.9355C1.5957 12.6426 1.9648 12.4961 2.4219 12.4961L24.6406 12.4961L28.9121 12.7773L22.9707 7.3809L19.0508 3.373C18.7578 3.0801 18.6113 2.7109 18.6113 2.2656C18.6113 1.832 18.7578 1.4688 19.0508 1.1758C19.3438 0.894499 19.7129 0.753899 20.1582 0.753899C20.5684 0.753899 20.9492 0.912099 21.3008 1.2285L32.9727 12.9004C33.3359 13.2402 33.5176 13.6328 33.5176 14.0781Z" fill="#637684"/>
</g>
<defs>
<clipPath id="clip0_2505_2214">
<rect width="34" height="28" fill="white" transform="translate(34 28) rotate(-180)"/>
</clipPath>
</defs>
</svg>
