<svg viewBox="0 0 1440 900" fill="none" xmlns="http://www.w3.org/2000/svg">
<path fill-rule="evenodd" clip-rule="evenodd" d="M0 47.3497C6.66602 60.4584 12.6581 73.7069 14.7479 84.9813C17.5974 100.354 16.3027 115.818 15.0104 131.252C13.1815 153.096 11.3574 174.883 21.2917 196.273C30.6484 216.418 43.7931 241.124 69.0618 254.44C81.4598 260.974 109.898 256.724 119.94 249.845C122.993 247.754 125.709 245.649 128.363 243.592C134.888 238.537 141.034 233.775 150.86 230.232C192.227 215.316 195.255 258.087 196.946 281.974C197.258 286.372 197.524 290.13 197.975 292.77C200.757 309.025 204.164 325.024 207.588 341.107C208.697 346.314 209.808 351.529 210.9 356.765C211.81 361.129 212.506 365.775 213.222 370.551C215.918 388.54 218.893 408.393 234.621 422.106C243.977 430.263 290.49 418.683 296.787 412.691C299.766 409.857 302.844 407.093 305.921 404.33C312.476 398.443 319.027 392.561 324.599 386.017C325.634 384.801 326.755 383.429 327.956 381.958C335.115 373.195 345.127 360.938 356.991 357.326C388.521 347.725 389.383 399.489 389.383 408.208C389.383 436.106 405.116 474.772 448.932 484.42C488.438 493.119 512.621 470.876 534.329 450.125C554.754 430.599 576.04 412.235 599.44 394.423C600.509 393.609 601.566 392.797 602.616 391.991C612.099 384.707 621.053 377.829 633.795 373.465C650.938 367.593 681.373 371.672 697.107 378.06C716.975 386.126 731.405 398.719 745.834 411.311C756.687 420.782 767.539 430.253 780.704 437.796C804.508 451.436 845.768 464.398 870.846 443.4C886.331 430.434 887.518 408.846 888.564 389.806C888.981 382.226 889.375 375.05 890.641 368.982C892.678 359.209 899.446 337.6 918.125 337.6C937.469 337.6 952.537 345.035 967.429 352.383C974.345 355.795 981.222 359.188 988.471 361.809C989.048 362.017 989.625 362.228 990.203 362.438C1000.47 366.177 1010.99 370.01 1021.84 365.395L1022.73 365.018C1039.83 357.753 1061.86 348.389 1065.03 333.79C1069.38 313.798 1067.12 292.417 1064.38 272.372C1064.07 270.122 1063.51 267.901 1062.96 265.748C1060.83 257.35 1058.96 249.983 1073.54 245.922C1117.39 233.707 1154.29 231.608 1198.86 240.767C1204.61 241.95 1210.13 243.336 1215.46 244.673C1237.67 250.252 1256.57 254.998 1275.75 240.767C1284.62 234.177 1287.23 225.427 1289.78 216.859C1290.56 214.254 1291.33 211.667 1292.27 209.161C1298.09 193.652 1310.77 178.351 1322.76 163.886C1326.42 159.467 1330.01 155.127 1333.33 150.882C1341.01 141.06 1344.59 130.226 1348.15 119.469C1352.68 105.754 1357.18 92.163 1370.06 80.9508C1375.95 75.8224 1386.52 68.5188 1398.49 60.2403C1412.1 50.8322 1427.53 40.1649 1440 30V613H0V47.3497Z" fill="#F9D24A"/>
<rect y="613" width="1440" height="287" fill="#F9D24A"/>
</svg>
