<svg width="630" height="630" viewBox="0 0 630 630" fill="none" xmlns="http://www.w3.org/2000/svg">
<g id="fig3-honey">
<circle id="Ellipse 187" cx="315" cy="315" r="275" fill="#D2D2D2"/>
<path id="Vector 1909" d="M190.5 69.5C21.4971 -89.4984 532.498 739.001 476.5 538" stroke="#2CA6EA" stroke-width="3"/>
<path id="Vector 1910" d="M446.312 73.4092C615.314 -85.5893 104.314 742.91 160.312 541.909" stroke="#2CA6EA" stroke-width="3"/>
<path id="Vector 1911" d="M589.552 294.127C814.065 352.748 -159.318 360.365 40.6968 300.942" stroke="#2CA6EA" stroke-width="3"/>
<g id="group-node" class="group-node">
<path id="Polygon 29" d="M303.048 242.643C311.063 238.016 320.937 238.016 328.951 242.643L372.456 267.761C380.47 272.388 385.408 280.939 385.408 290.193V340.429C385.408 349.683 380.47 358.234 372.456 362.861L328.951 387.979C320.937 392.606 311.063 392.606 303.048 387.979L259.543 362.861C251.529 358.234 246.592 349.683 246.592 340.429V290.193C246.592 280.939 251.529 272.388 259.543 267.761L303.048 242.643Z" fill="#FFE96A" stroke="#343434" stroke-width="8"/>
<path id="Core" d="M296.172 323.328C290.594 323.328 287.107 319.418 287.107 313.129C287.107 306.881 290.635 302.943 296.145 302.943C299.768 302.943 302.666 304.707 303.896 307.619C304.088 308.016 304.184 308.426 304.184 308.795C304.184 309.615 303.637 310.148 302.816 310.148C302.092 310.148 301.613 309.793 301.271 309C300.355 306.799 298.414 305.623 296.145 305.623C292.562 305.623 290.238 308.562 290.238 313.129C290.238 317.736 292.535 320.648 296.158 320.648C298.564 320.648 300.41 319.623 301.326 317.49C301.654 316.766 302.051 316.465 302.721 316.465C303.555 316.465 304.129 317.039 304.129 317.846C304.129 318.27 304.02 318.666 303.801 319.117C302.529 321.783 299.836 323.328 296.172 323.328ZM313.111 323.273C308.996 323.273 306.289 320.443 306.289 315.809C306.289 311.188 309.01 308.357 313.111 308.357C317.213 308.357 319.934 311.188 319.934 315.809C319.934 320.443 317.227 323.273 313.111 323.273ZM313.111 320.84C315.436 320.84 316.926 319.008 316.926 315.809C316.926 312.623 315.422 310.791 313.111 310.791C310.801 310.791 309.297 312.623 309.297 315.809C309.297 319.008 310.801 320.84 313.111 320.84ZM323.693 323.26C322.805 323.26 322.217 322.658 322.217 321.701V309.848C322.217 308.945 322.791 308.357 323.625 308.357C324.445 308.357 325.02 308.945 325.02 309.848V311.078H325.088C325.484 309.465 326.811 308.385 328.246 308.385C328.766 308.385 329.162 308.508 329.408 308.74C329.682 308.959 329.805 309.314 329.805 309.779C329.805 310.244 329.654 310.586 329.367 310.818C329.066 311.078 328.629 311.201 328.014 311.201C325.99 311.215 325.17 312.568 325.17 314.359V321.701C325.17 322.658 324.568 323.26 323.693 323.26ZM337.01 323.273C332.676 323.273 330.133 320.525 330.133 315.877C330.133 311.311 332.73 308.357 336.805 308.357C340.633 308.357 343.271 311.119 343.271 315.043C343.271 316 342.725 316.547 341.809 316.547H333.113V316.615C333.113 319.24 334.59 320.881 336.941 320.881C338.555 320.881 339.566 320.32 340.66 318.83C340.975 318.461 341.275 318.311 341.699 318.311C342.41 318.311 342.93 318.775 342.93 319.514C342.93 319.746 342.848 320.02 342.725 320.307C341.781 322.193 339.689 323.273 337.01 323.273ZM333.127 314.482H340.318C340.25 312.227 338.842 310.736 336.791 310.736C334.754 310.736 333.277 312.24 333.127 314.482Z" fill="#343434"/>
</g>
<g id="group-node_2" class="group-node">
<path id="Polygon 30" d="M460.286 242.643C468.301 238.016 478.175 238.016 486.189 242.643L529.694 267.761C537.709 272.388 542.646 280.939 542.646 290.193V340.429C542.646 349.683 537.709 358.234 529.694 362.861L486.189 387.979C478.175 392.606 468.301 392.606 460.286 387.979L416.781 362.861C408.767 358.234 403.83 349.683 403.83 340.429V290.193C403.83 280.939 408.767 272.388 416.781 267.761L460.286 242.643Z" fill="#FFE96A" stroke="#343434" stroke-width="8"/>
<path id="Node" d="M443.309 323.219C442.379 323.219 441.818 322.631 441.818 321.66V304.707C441.818 303.695 442.447 303.053 443.459 303.053C444.184 303.053 444.607 303.299 445.113 304.01L454.82 317.818H454.93V304.611C454.93 303.641 455.504 303.053 456.42 303.053C457.35 303.053 457.91 303.641 457.91 304.611V321.633C457.91 322.631 457.322 323.219 456.297 323.219C455.545 323.219 455.148 322.986 454.643 322.275L444.922 308.467H444.799V321.66C444.799 322.631 444.238 323.219 443.309 323.219ZM467.385 323.273C463.27 323.273 460.562 320.443 460.562 315.809C460.562 311.188 463.283 308.357 467.385 308.357C471.486 308.357 474.207 311.188 474.207 315.809C474.207 320.443 471.5 323.273 467.385 323.273ZM467.385 320.84C469.709 320.84 471.199 319.008 471.199 315.809C471.199 312.623 469.695 310.791 467.385 310.791C465.074 310.791 463.57 312.623 463.57 315.809C463.57 319.008 465.074 320.84 467.385 320.84ZM481.891 323.246C478.254 323.246 475.848 320.348 475.848 315.809C475.848 311.27 478.254 308.385 481.863 308.385C483.928 308.385 485.568 309.424 486.375 311.01H486.43V304.57C486.43 303.6 487.045 303.012 487.92 303.012C488.781 303.012 489.396 303.6 489.396 304.57V321.783C489.396 322.713 488.795 323.26 487.934 323.26C487.1 323.26 486.43 322.713 486.43 321.783V320.443H486.389C485.65 322.125 484.133 323.246 481.891 323.246ZM482.67 320.744C484.939 320.744 486.457 318.816 486.457 315.809C486.457 312.828 484.939 310.873 482.67 310.873C480.332 310.873 478.869 312.787 478.869 315.809C478.869 318.844 480.332 320.744 482.67 320.744ZM498.666 323.273C494.332 323.273 491.789 320.525 491.789 315.877C491.789 311.311 494.387 308.357 498.461 308.357C502.289 308.357 504.928 311.119 504.928 315.043C504.928 316 504.381 316.547 503.465 316.547H494.77V316.615C494.77 319.24 496.246 320.881 498.598 320.881C500.211 320.881 501.223 320.32 502.316 318.83C502.631 318.461 502.932 318.311 503.355 318.311C504.066 318.311 504.586 318.775 504.586 319.514C504.586 319.746 504.504 320.02 504.381 320.307C503.438 322.193 501.346 323.273 498.666 323.273ZM494.783 314.482H501.975C501.906 312.227 500.498 310.736 498.447 310.736C496.41 310.736 494.934 312.24 494.783 314.482Z" fill="#343434"/>
</g>
<g id="group-node_3" class="group-node">
<path id="Polygon 34" d="M381.542 104.096C389.557 99.4692 399.431 99.4692 407.445 104.096L450.95 129.214C458.965 133.841 463.902 142.392 463.902 151.646V201.882C463.902 211.136 458.965 219.687 450.95 224.314L407.445 249.432C399.431 254.059 389.557 254.059 381.542 249.432L338.037 224.314C330.023 219.687 325.086 211.136 325.086 201.882V151.647C325.086 142.392 330.023 133.841 338.037 129.214L381.542 104.096Z" fill="#FFE96A" stroke="#343434" stroke-width="8"/>
<path id="Node_2" d="M364.309 185.219C363.379 185.219 362.818 184.631 362.818 183.66V166.707C362.818 165.695 363.447 165.053 364.459 165.053C365.184 165.053 365.607 165.299 366.113 166.01L375.82 179.818H375.93V166.611C375.93 165.641 376.504 165.053 377.42 165.053C378.35 165.053 378.91 165.641 378.91 166.611V183.633C378.91 184.631 378.322 185.219 377.297 185.219C376.545 185.219 376.148 184.986 375.643 184.275L365.922 170.467H365.799V183.66C365.799 184.631 365.238 185.219 364.309 185.219ZM388.385 185.273C384.27 185.273 381.562 182.443 381.562 177.809C381.562 173.188 384.283 170.357 388.385 170.357C392.486 170.357 395.207 173.188 395.207 177.809C395.207 182.443 392.5 185.273 388.385 185.273ZM388.385 182.84C390.709 182.84 392.199 181.008 392.199 177.809C392.199 174.623 390.695 172.791 388.385 172.791C386.074 172.791 384.57 174.623 384.57 177.809C384.57 181.008 386.074 182.84 388.385 182.84ZM402.891 185.246C399.254 185.246 396.848 182.348 396.848 177.809C396.848 173.27 399.254 170.385 402.863 170.385C404.928 170.385 406.568 171.424 407.375 173.01H407.43V166.57C407.43 165.6 408.045 165.012 408.92 165.012C409.781 165.012 410.396 165.6 410.396 166.57V183.783C410.396 184.713 409.795 185.26 408.934 185.26C408.1 185.26 407.43 184.713 407.43 183.783V182.443H407.389C406.65 184.125 405.133 185.246 402.891 185.246ZM403.67 182.744C405.939 182.744 407.457 180.816 407.457 177.809C407.457 174.828 405.939 172.873 403.67 172.873C401.332 172.873 399.869 174.787 399.869 177.809C399.869 180.844 401.332 182.744 403.67 182.744ZM419.666 185.273C415.332 185.273 412.789 182.525 412.789 177.877C412.789 173.311 415.387 170.357 419.461 170.357C423.289 170.357 425.928 173.119 425.928 177.043C425.928 178 425.381 178.547 424.465 178.547H415.77V178.615C415.77 181.24 417.246 182.881 419.598 182.881C421.211 182.881 422.223 182.32 423.316 180.83C423.631 180.461 423.932 180.311 424.355 180.311C425.066 180.311 425.586 180.775 425.586 181.514C425.586 181.746 425.504 182.02 425.381 182.307C424.438 184.193 422.346 185.273 419.666 185.273ZM415.783 176.482H422.975C422.906 174.227 421.498 172.736 419.447 172.736C417.41 172.736 415.934 174.24 415.783 176.482Z" fill="#343434"/>
</g>
<g id="group-node_4" class="group-node">
<path id="Polygon 33" d="M223.301 104.096C231.315 99.4692 241.19 99.4692 249.204 104.096L292.709 129.214C300.723 133.841 305.66 142.392 305.66 151.646V201.882C305.66 211.136 300.723 219.687 292.709 224.314L249.204 249.432C241.19 254.059 231.315 254.059 223.301 249.432L179.796 224.314C171.782 219.687 166.845 211.136 166.845 201.882V151.647C166.845 142.392 171.782 133.841 179.796 129.214L223.301 104.096Z" fill="#FFE96A" stroke="#343434" stroke-width="8"/>
<path id="Node_3" d="M206.309 185.219C205.379 185.219 204.818 184.631 204.818 183.66V166.707C204.818 165.695 205.447 165.053 206.459 165.053C207.184 165.053 207.607 165.299 208.113 166.01L217.82 179.818H217.93V166.611C217.93 165.641 218.504 165.053 219.42 165.053C220.35 165.053 220.91 165.641 220.91 166.611V183.633C220.91 184.631 220.322 185.219 219.297 185.219C218.545 185.219 218.148 184.986 217.643 184.275L207.922 170.467H207.799V183.66C207.799 184.631 207.238 185.219 206.309 185.219ZM230.385 185.273C226.27 185.273 223.562 182.443 223.562 177.809C223.562 173.188 226.283 170.357 230.385 170.357C234.486 170.357 237.207 173.188 237.207 177.809C237.207 182.443 234.5 185.273 230.385 185.273ZM230.385 182.84C232.709 182.84 234.199 181.008 234.199 177.809C234.199 174.623 232.695 172.791 230.385 172.791C228.074 172.791 226.57 174.623 226.57 177.809C226.57 181.008 228.074 182.84 230.385 182.84ZM244.891 185.246C241.254 185.246 238.848 182.348 238.848 177.809C238.848 173.27 241.254 170.385 244.863 170.385C246.928 170.385 248.568 171.424 249.375 173.01H249.43V166.57C249.43 165.6 250.045 165.012 250.92 165.012C251.781 165.012 252.396 165.6 252.396 166.57V183.783C252.396 184.713 251.795 185.26 250.934 185.26C250.1 185.26 249.43 184.713 249.43 183.783V182.443H249.389C248.65 184.125 247.133 185.246 244.891 185.246ZM245.67 182.744C247.939 182.744 249.457 180.816 249.457 177.809C249.457 174.828 247.939 172.873 245.67 172.873C243.332 172.873 241.869 174.787 241.869 177.809C241.869 180.844 243.332 182.744 245.67 182.744ZM261.666 185.273C257.332 185.273 254.789 182.525 254.789 177.877C254.789 173.311 257.387 170.357 261.461 170.357C265.289 170.357 267.928 173.119 267.928 177.043C267.928 178 267.381 178.547 266.465 178.547H257.77V178.615C257.77 181.24 259.246 182.881 261.598 182.881C263.211 182.881 264.223 182.32 265.316 180.83C265.631 180.461 265.932 180.311 266.355 180.311C267.066 180.311 267.586 180.775 267.586 181.514C267.586 181.746 267.504 182.02 267.381 182.307C266.438 184.193 264.346 185.273 261.666 185.273ZM257.783 176.482H264.975C264.906 174.227 263.498 172.736 261.447 172.736C259.41 172.736 257.934 174.24 257.783 176.482Z" fill="#343434"/>
</g>
<g id="group-node_5" class="group-node">
<path id="Polygon 28" d="M143.813 242.643C151.827 238.016 161.701 238.016 169.716 242.643L213.221 267.761C221.235 272.388 226.172 280.939 226.172 290.193V340.429C226.172 349.683 221.235 358.234 213.221 362.861L169.716 387.979C161.701 392.606 151.827 392.606 143.813 387.979L100.308 362.861C92.2933 358.234 87.3563 349.683 87.3563 340.429V290.193C87.3563 280.939 92.2933 272.388 100.308 267.761L143.813 242.643Z" fill="#FFE96A" stroke="#343434" stroke-width="8"/>
<path id="Node_4" d="M127.309 323.219C126.379 323.219 125.818 322.631 125.818 321.66V304.707C125.818 303.695 126.447 303.053 127.459 303.053C128.184 303.053 128.607 303.299 129.113 304.01L138.82 317.818H138.93V304.611C138.93 303.641 139.504 303.053 140.42 303.053C141.35 303.053 141.91 303.641 141.91 304.611V321.633C141.91 322.631 141.322 323.219 140.297 323.219C139.545 323.219 139.148 322.986 138.643 322.275L128.922 308.467H128.799V321.66C128.799 322.631 128.238 323.219 127.309 323.219ZM151.385 323.273C147.27 323.273 144.562 320.443 144.562 315.809C144.562 311.188 147.283 308.357 151.385 308.357C155.486 308.357 158.207 311.188 158.207 315.809C158.207 320.443 155.5 323.273 151.385 323.273ZM151.385 320.84C153.709 320.84 155.199 319.008 155.199 315.809C155.199 312.623 153.695 310.791 151.385 310.791C149.074 310.791 147.57 312.623 147.57 315.809C147.57 319.008 149.074 320.84 151.385 320.84ZM165.891 323.246C162.254 323.246 159.848 320.348 159.848 315.809C159.848 311.27 162.254 308.385 165.863 308.385C167.928 308.385 169.568 309.424 170.375 311.01H170.43V304.57C170.43 303.6 171.045 303.012 171.92 303.012C172.781 303.012 173.396 303.6 173.396 304.57V321.783C173.396 322.713 172.795 323.26 171.934 323.26C171.1 323.26 170.43 322.713 170.43 321.783V320.443H170.389C169.65 322.125 168.133 323.246 165.891 323.246ZM166.67 320.744C168.939 320.744 170.457 318.816 170.457 315.809C170.457 312.828 168.939 310.873 166.67 310.873C164.332 310.873 162.869 312.787 162.869 315.809C162.869 318.844 164.332 320.744 166.67 320.744ZM182.666 323.273C178.332 323.273 175.789 320.525 175.789 315.877C175.789 311.311 178.387 308.357 182.461 308.357C186.289 308.357 188.928 311.119 188.928 315.043C188.928 316 188.381 316.547 187.465 316.547H178.77V316.615C178.77 319.24 180.246 320.881 182.598 320.881C184.211 320.881 185.223 320.32 186.316 318.83C186.631 318.461 186.932 318.311 187.355 318.311C188.066 318.311 188.586 318.775 188.586 319.514C188.586 319.746 188.504 320.02 188.381 320.307C187.438 322.193 185.346 323.273 182.666 323.273ZM178.783 314.482H185.975C185.906 312.227 184.498 310.736 182.447 310.736C180.41 310.736 178.934 312.24 178.783 314.482Z" fill="#343434"/>
</g>
<g id="group-node_6" class="group-node">
<path id="Polygon 31" d="M223.301 379.701C231.315 375.073 241.19 375.073 249.204 379.701L292.709 404.818C300.723 409.445 305.66 417.997 305.66 427.251V477.486C305.66 486.74 300.723 495.292 292.709 499.919L249.204 525.036C241.19 529.663 231.315 529.663 223.301 525.036L179.796 499.919C171.782 495.292 166.845 486.74 166.845 477.486V427.251C166.845 417.997 171.782 409.445 179.796 404.818L223.301 379.701Z" fill="#FFE96A" stroke="#343434" stroke-width="8"/>
<path id="Node_5" d="M206.309 460.219C205.379 460.219 204.818 459.631 204.818 458.66V441.707C204.818 440.695 205.447 440.053 206.459 440.053C207.184 440.053 207.607 440.299 208.113 441.01L217.82 454.818H217.93V441.611C217.93 440.641 218.504 440.053 219.42 440.053C220.35 440.053 220.91 440.641 220.91 441.611V458.633C220.91 459.631 220.322 460.219 219.297 460.219C218.545 460.219 218.148 459.986 217.643 459.275L207.922 445.467H207.799V458.66C207.799 459.631 207.238 460.219 206.309 460.219ZM230.385 460.273C226.27 460.273 223.562 457.443 223.562 452.809C223.562 448.188 226.283 445.357 230.385 445.357C234.486 445.357 237.207 448.188 237.207 452.809C237.207 457.443 234.5 460.273 230.385 460.273ZM230.385 457.84C232.709 457.84 234.199 456.008 234.199 452.809C234.199 449.623 232.695 447.791 230.385 447.791C228.074 447.791 226.57 449.623 226.57 452.809C226.57 456.008 228.074 457.84 230.385 457.84ZM244.891 460.246C241.254 460.246 238.848 457.348 238.848 452.809C238.848 448.27 241.254 445.385 244.863 445.385C246.928 445.385 248.568 446.424 249.375 448.01H249.43V441.57C249.43 440.6 250.045 440.012 250.92 440.012C251.781 440.012 252.396 440.6 252.396 441.57V458.783C252.396 459.713 251.795 460.26 250.934 460.26C250.1 460.26 249.43 459.713 249.43 458.783V457.443H249.389C248.65 459.125 247.133 460.246 244.891 460.246ZM245.67 457.744C247.939 457.744 249.457 455.816 249.457 452.809C249.457 449.828 247.939 447.873 245.67 447.873C243.332 447.873 241.869 449.787 241.869 452.809C241.869 455.844 243.332 457.744 245.67 457.744ZM261.666 460.273C257.332 460.273 254.789 457.525 254.789 452.877C254.789 448.311 257.387 445.357 261.461 445.357C265.289 445.357 267.928 448.119 267.928 452.043C267.928 453 267.381 453.547 266.465 453.547H257.77V453.615C257.77 456.24 259.246 457.881 261.598 457.881C263.211 457.881 264.223 457.32 265.316 455.83C265.631 455.461 265.932 455.311 266.355 455.311C267.066 455.311 267.586 455.775 267.586 456.514C267.586 456.746 267.504 457.02 267.381 457.307C266.438 459.193 264.346 460.273 261.666 460.273ZM257.783 451.482H264.975C264.906 449.227 263.498 447.736 261.447 447.736C259.41 447.736 257.934 449.24 257.783 451.482Z" fill="#343434"/>
</g>
<g id="group-node_7" class="group-node">
<path id="Polygon 32" d="M381.542 379.701C389.557 375.073 399.431 375.073 407.445 379.701L450.95 404.818C458.965 409.445 463.902 417.997 463.902 427.251V477.486C463.902 486.74 458.965 495.292 450.95 499.919L407.445 525.036C399.431 529.663 389.557 529.663 381.542 525.036L338.037 499.919C330.023 495.292 325.086 486.74 325.086 477.486V427.251C325.086 417.997 330.023 409.445 338.037 404.818L381.542 379.701Z" fill="#FFE96A" stroke="#343434" stroke-width="8"/>
<path id="Node_6" d="M364.309 460.219C363.379 460.219 362.818 459.631 362.818 458.66V441.707C362.818 440.695 363.447 440.053 364.459 440.053C365.184 440.053 365.607 440.299 366.113 441.01L375.82 454.818H375.93V441.611C375.93 440.641 376.504 440.053 377.42 440.053C378.35 440.053 378.91 440.641 378.91 441.611V458.633C378.91 459.631 378.322 460.219 377.297 460.219C376.545 460.219 376.148 459.986 375.643 459.275L365.922 445.467H365.799V458.66C365.799 459.631 365.238 460.219 364.309 460.219ZM388.385 460.273C384.27 460.273 381.562 457.443 381.562 452.809C381.562 448.188 384.283 445.357 388.385 445.357C392.486 445.357 395.207 448.188 395.207 452.809C395.207 457.443 392.5 460.273 388.385 460.273ZM388.385 457.84C390.709 457.84 392.199 456.008 392.199 452.809C392.199 449.623 390.695 447.791 388.385 447.791C386.074 447.791 384.57 449.623 384.57 452.809C384.57 456.008 386.074 457.84 388.385 457.84ZM402.891 460.246C399.254 460.246 396.848 457.348 396.848 452.809C396.848 448.27 399.254 445.385 402.863 445.385C404.928 445.385 406.568 446.424 407.375 448.01H407.43V441.57C407.43 440.6 408.045 440.012 408.92 440.012C409.781 440.012 410.396 440.6 410.396 441.57V458.783C410.396 459.713 409.795 460.26 408.934 460.26C408.1 460.26 407.43 459.713 407.43 458.783V457.443H407.389C406.65 459.125 405.133 460.246 402.891 460.246ZM403.67 457.744C405.939 457.744 407.457 455.816 407.457 452.809C407.457 449.828 405.939 447.873 403.67 447.873C401.332 447.873 399.869 449.787 399.869 452.809C399.869 455.844 401.332 457.744 403.67 457.744ZM419.666 460.273C415.332 460.273 412.789 457.525 412.789 452.877C412.789 448.311 415.387 445.357 419.461 445.357C423.289 445.357 425.928 448.119 425.928 452.043C425.928 453 425.381 453.547 424.465 453.547H415.77V453.615C415.77 456.24 417.246 457.881 419.598 457.881C421.211 457.881 422.223 457.32 423.316 455.83C423.631 455.461 423.932 455.311 424.355 455.311C425.066 455.311 425.586 455.775 425.586 456.514C425.586 456.746 425.504 457.02 425.381 457.307C424.438 459.193 422.346 460.273 419.666 460.273ZM415.783 451.482H422.975C422.906 449.227 421.498 447.736 419.447 447.736C417.41 447.736 415.934 449.24 415.783 451.482Z" fill="#343434"/>
</g>
</g>
</svg>
