<svg width="24" height="24" viewBox="0 0 24 24" fill="none" xmlns="http://www.w3.org/2000/svg">
<path d="M21 5.87111C21 6.09777 20.8525 6.32444 20.6311 6.47556C18.5656 7.68444 17.9016 10.4044 17.9016 12.7467C17.9016 13.2 18.123 13.4267 18.6393 13.4267H19.4508C19.9672 13.4267 20.1885 13.6533 20.1885 14.1822V19.2444C20.1885 19.7733 19.9672 20 19.4508 20H13.918C13.4016 20 13.1803 19.7733 13.1803 19.2444V14.8622C13.1803 10.0267 14.3607 7.00444 16.2787 5.04C17.6066 3.68 18.8607 3 19.3033 3C19.5984 3 19.8197 3.15111 19.9672 3.45333L20.6311 4.88889C20.8525 5.34222 21 5.64444 21 5.87111ZM10.8197 5.87111C10.8197 6.09777 10.6721 6.32444 10.4508 6.47556C8.38525 7.68444 7.72131 10.4044 7.72131 12.7467C7.72131 13.2 7.94262 13.4267 8.45902 13.4267H9.27049C9.78688 13.4267 10.0082 13.6533 10.0082 14.1822V19.2444C10.0082 19.7733 9.78688 20 9.27049 20H3.7377C3.22131 20 3 19.7733 3 19.2444V14.8622C3 10.0267 4.18033 7.00444 6.09836 5.04C7.42623 3.68 8.68033 3 9.12295 3C9.41803 3 9.63935 3.15111 9.78689 3.45333L10.4508 4.88889C10.6721 5.34222 10.8197 5.64444 10.8197 5.87111Z" fill="#F9D24A"/>
</svg>
