<svg width="24" height="24" viewBox="0 0 24 24" fill="none" xmlns="http://www.w3.org/2000/svg">
<path d="M16.9996 13V14C16.9996 16.77 16.3356 19.445 15.0846 21.846L14.8576 22.266L13.1106 21.292C14.2706 19.212 14.9206 16.882 14.9926 14.456L14.9996 14V13H16.9996ZM10.9996 10H12.9996V14L12.9946 14.379C12.919 17.1167 11.9768 19.7598 10.3036 21.928L10.0726 22.218L8.52263 20.954C10.049 19.0899 10.9176 16.7741 10.9936 14.366L10.9996 14V10ZM11.9996 6.00001C13.3257 6.00001 14.5975 6.52679 15.5352 7.46448C16.4728 8.40216 16.9996 9.67393 16.9996 11H14.9996C14.9996 10.2044 14.6836 9.4413 14.121 8.87869C13.5583 8.31608 12.7953 8.00001 11.9996 8.00001C11.204 8.00001 10.4409 8.31608 9.87831 8.87869C9.3157 9.4413 8.99963 10.2044 8.99963 11V14C8.99963 16.235 8.17963 18.344 6.72863 19.977L6.51663 20.207L5.06863 18.827C6.23859 17.6029 6.92287 15.9948 6.99363 14.303L6.99963 14V11C6.99963 9.67393 7.52642 8.40216 8.4641 7.46448C9.40178 6.52679 10.6736 6.00001 11.9996 6.00001ZM11.9996 2.00001C14.3866 2.00001 16.6758 2.94822 18.3636 4.63605C20.0514 6.32388 20.9996 8.61306 20.9996 11V14C20.9996 15.698 20.7976 17.37 20.4026 18.99L20.2636 19.529L18.3336 19.003C18.7256 17.566 18.9466 16.081 18.9916 14.568L18.9996 14V11C18.9996 9.70087 18.6381 8.42737 17.9555 7.32201C17.2729 6.21666 16.2962 5.32307 15.1346 4.74125C13.973 4.15943 12.6725 3.91233 11.3785 4.02762C10.0845 4.1429 8.84805 4.61601 7.80763 5.39401L6.38263 3.96801C7.97611 2.69129 9.95778 1.99698 11.9996 2.00001ZM4.96763 5.38301L6.39363 6.80801C5.53597 7.95124 5.05069 9.3306 5.00363 10.759L4.99963 11L5.00363 13C5.00363 14.12 4.73963 15.203 4.24163 16.177L4.08563 16.467L2.34863 15.475C2.72863 14.81 2.95063 14.068 2.99463 13.292L3.00363 13V11C2.9977 8.95834 3.69078 6.97615 4.96763 5.38301Z" fill="#F9D24A"/>
</svg>
