<svg width="56" height="56" viewBox="0 0 56 56" fill="none" xmlns="http://www.w3.org/2000/svg">
<g clip-path="url(#clip0_2334_294)">
<path d="M11.1578 20.073L16.244 23.0095C17.0162 23.4553 17.4919 24.2793 17.4919 25.171V31.0441C17.4919 31.9358 17.0162 32.7598 16.244 33.2056L11.1578 36.1421C10.3855 36.588 9.43408 36.588 8.66183 36.1421L3.57563 33.2056C2.80339 32.7598 2.32766 31.9358 2.32766 31.0441V25.171C2.32766 24.2793 2.80339 23.4553 3.57563 23.0095L8.66183 20.073C9.43408 19.6271 10.3855 19.6271 11.1578 20.073Z" fill="#FFE96A" stroke="#343434" stroke-width="2"/>
<path d="M29.774 20.073L34.8602 23.0095C35.6324 23.4553 36.1082 24.2793 36.1082 25.171V31.0441C36.1082 31.9358 35.6324 32.7598 34.8602 33.2056L29.774 36.1421C29.0017 36.588 28.0503 36.588 27.278 36.1421L22.1918 33.2056C21.4196 32.7598 20.9439 31.9358 20.9439 31.0441V25.171C20.9439 24.2793 21.4196 23.4553 22.1918 23.0095L27.278 20.073C28.0503 19.6271 29.0017 19.6271 29.774 20.073Z" fill="#FFE96A" stroke="#343434" stroke-width="2"/>
<path d="M48.1568 20.073L53.243 23.0095C54.0152 23.4553 54.491 24.2793 54.491 25.171V31.0441C54.491 31.9358 54.0152 32.7598 53.243 33.2056L48.1568 36.1421C47.3846 36.588 46.4331 36.588 45.6609 36.1421L40.5747 33.2056C39.8024 32.7598 39.3267 31.9358 39.3267 31.0441V25.171C39.3267 24.2793 39.8024 23.4553 40.5747 23.0095L45.6609 20.073C46.4331 19.6271 47.3846 19.6271 48.1568 20.073Z" fill="#FFE96A" stroke="#343434" stroke-width="2"/>
<path d="M20.4507 36.0964L25.5369 39.0329C26.3092 39.4788 26.7849 40.3028 26.7849 41.1945V47.0675C26.7849 47.9592 26.3092 48.7832 25.5369 49.2291L20.4507 52.1656C19.6785 52.6114 18.727 52.6114 17.9548 52.1656L12.8686 49.2291C12.0964 48.7832 11.6206 47.9592 11.6206 47.0675V41.1945C11.6206 40.3028 12.0964 39.4788 12.8686 39.0329L17.9548 36.0964C18.727 35.6506 19.6785 35.6506 20.4507 36.0964Z" fill="#FFE96A" stroke="#343434" stroke-width="2"/>
<path d="M38.9507 36.0964L44.0369 39.0329C44.8092 39.4788 45.2849 40.3028 45.2849 41.1945V47.0675C45.2849 47.9592 44.8092 48.7832 44.0369 49.2291L38.9507 52.1656C38.1785 52.6114 37.227 52.6114 36.4548 52.1656L31.3686 49.2291C30.5964 48.7832 30.1206 47.9592 30.1206 47.0675V41.1945C30.1206 40.3028 30.5964 39.4788 31.3686 39.0329L36.4548 36.0964C37.227 35.6506 38.1785 35.6506 38.9507 36.0964Z" fill="#FFE96A" stroke="#343434" stroke-width="2"/>
<path d="M20.4507 3.87522L25.5369 6.81173C26.3092 7.25759 26.7849 8.08157 26.7849 8.97328V14.8463C26.7849 15.738 26.3092 16.562 25.5369 17.0079L20.4507 19.9444C19.6785 20.3902 18.727 20.3902 17.9548 19.9444L12.8686 17.0079C12.0964 16.562 11.6206 15.738 11.6206 14.8463V8.97329C11.6206 8.08157 12.0964 7.25759 12.8686 6.81174L17.9548 3.87522C18.727 3.42936 19.6785 3.42936 20.4507 3.87522Z" fill="#FFE96A" stroke="#343434" stroke-width="2"/>
<path d="M38.9507 3.87522L44.0369 6.81173C44.8092 7.25759 45.2849 8.08157 45.2849 8.97328V14.8463C45.2849 15.738 44.8092 16.562 44.0369 17.0079L38.9507 19.9444C38.1785 20.3902 37.227 20.3902 36.4548 19.9444L31.3686 17.0079C30.5964 16.562 30.1206 15.738 30.1206 14.8463V8.97329C30.1206 8.08157 30.5964 7.25759 31.3686 6.81174L36.4548 3.87522C37.227 3.42936 38.1785 3.42936 38.9507 3.87522Z" fill="#FFE96A" stroke="#343434" stroke-width="2"/>
</g>
<defs>
<clipPath id="clip0_2334_294">
<rect width="56" height="56" fill="white"/>
</clipPath>
</defs>
</svg>
