<svg width="94" height="105" viewBox="0 0 94 105" fill="none" xmlns="http://www.w3.org/2000/svg">
<path d="M7.49942 60C3.99996 60 2.99944 51 5.49942 49L20.5 22.5L36 9L57.5 11L70 20L86.9994 48C96.5 56.5 85.5 71 82.5 64.5C80 59 75.1306 58 76.4994 64.5C78.5 74 80.8125 87 69.9994 87C66 87 70 77.5 61.4994 81.5C53.769 85.1376 65.5006 90.5 68 95.5C70.3871 100.275 58.5 103.5 53.5 95.5C50.5 89 46 92 45 87.5C44.158 82.4731 44 79 40.5 80.5C32.0006 85 45 100.396 35.4994 100C23.5 99.5 26.7 77.5 22.5 76C15.5 73.5 23.5 87 16.5 84.5C5.00049 79.5 20 61 13.4994 56C9.99996 54 9.99996 60 7.49942 60Z" fill="#F9C000" stroke="#C69900"/>
<path d="M33.75 3.58771L42.7404 8.77831C43.8233 9.40353 44.4904 10.559 44.4904 11.8094V22.1906C44.4904 23.441 43.8233 24.5965 42.7404 25.2217L33.75 30.4123C32.6671 31.0375 31.3329 31.0375 30.25 30.4123L21.2596 25.2217C20.1767 24.5965 19.5096 23.441 19.5096 22.1906V11.8094C19.5096 10.559 20.1767 9.40353 21.2596 8.77831L30.25 3.58771C31.3329 2.9625 32.6671 2.9625 33.75 3.58771Z" fill="#FFC500" stroke="#C69900"/>
<path d="M61.75 3.58771L70.7404 8.77831C71.8233 9.40353 72.4904 10.559 72.4904 11.8094V22.1906C72.4904 23.441 71.8233 24.5965 70.7404 25.2217L61.75 30.4123C60.6671 31.0375 59.3329 31.0375 58.25 30.4123L49.2596 25.2217C48.1767 24.5965 47.5096 23.441 47.5096 22.1906V11.8094C47.5096 10.559 48.1767 9.40353 49.2596 8.77831L58.25 3.58771C59.3329 2.9625 60.6671 2.9625 61.75 3.58771Z" fill="#FFC500" stroke="#C69900"/>
<path d="M33.75 51.5877L42.7404 56.7783C43.8233 57.4035 44.4904 58.559 44.4904 59.8094V70.1906C44.4904 71.441 43.8233 72.5965 42.7404 73.2217L33.75 78.4123C32.6671 79.0375 31.3329 79.0375 30.25 78.4123L21.2596 73.2217C20.1767 72.5965 19.5096 71.441 19.5096 70.1906V59.8094C19.5096 58.559 20.1767 57.4035 21.2596 56.7783L30.25 51.5877C31.3329 50.9625 32.6671 50.9625 33.75 51.5877Z" fill="#FFC500" stroke="#C69900"/>
<path d="M61.75 51.5877L70.7404 56.7783C71.8233 57.4035 72.4904 58.559 72.4904 59.8094V70.1906C72.4904 71.441 71.8233 72.5965 70.7404 73.2217L61.75 78.4123C60.6671 79.0375 59.3329 79.0375 58.25 78.4123L49.2596 73.2217C48.1767 72.5965 47.5096 71.441 47.5096 70.1906V59.8094C47.5096 58.559 48.1767 57.4035 49.2596 56.7783L58.25 51.5877C59.3329 50.9625 60.6671 50.9625 61.75 51.5877Z" fill="#FFC500" stroke="#C69900"/>
<path d="M47.75 27.5877L56.7404 32.7783C57.8233 33.4035 58.4904 34.559 58.4904 35.8094V46.1906C58.4904 47.441 57.8233 48.5965 56.7404 49.2217L47.75 54.4123C46.6671 55.0375 45.3329 55.0375 44.25 54.4123L35.2596 49.2217C34.1767 48.5965 33.5096 47.441 33.5096 46.1906V35.8094C33.5096 34.559 34.1767 33.4035 35.2596 32.7783L44.25 27.5877C45.3329 26.9625 46.6671 26.9625 47.75 27.5877Z" fill="#FFC500" stroke="#C69900"/>
<path d="M75.75 27.5877L84.7404 32.7783C85.8233 33.4035 86.4904 34.559 86.4904 35.8094V46.1906C86.4904 47.441 85.8233 48.5965 84.7404 49.2217L75.75 54.4123C74.6671 55.0375 73.3329 55.0375 72.25 54.4123L63.2596 49.2217C62.1767 48.5965 61.5096 47.441 61.5096 46.1906V35.8094C61.5096 34.559 62.1767 33.4035 63.2596 32.7783L72.25 27.5877C73.3329 26.9625 74.6671 26.9625 75.75 27.5877Z" fill="#FFC500" stroke="#C69900"/>
<path d="M19.75 27.5877L28.7404 32.7783C29.8233 33.4035 30.4904 34.559 30.4904 35.8094V46.1906C30.4904 47.441 29.8233 48.5965 28.7404 49.2217L19.75 54.4123C18.6671 55.0375 17.3329 55.0375 16.25 54.4123L7.25962 49.2217C6.17671 48.5965 5.50962 47.441 5.50962 46.1906V35.8094C5.50962 34.559 6.17671 33.4035 7.25962 32.7783L16.25 27.5877C17.3329 26.9625 18.6671 26.9625 19.75 27.5877Z" fill="#FFC500" stroke="#C69900"/>
</svg>
