<svg width="1440" height="900" viewBox="0 0 1440 900" fill="none" xmlns="http://www.w3.org/2000/svg">
<g id="bg-cta">
<path id="honey1" fill-rule="evenodd" clip-rule="evenodd" d="M1440 356.5L1423.2 311.938C1405.2 267.375 1371.6 178.25 1336.8 178.25C1303.2 178.25 1268.4 267.375 1234.8 326.792C1200 386.208 1165.2 415.917 1131.6 401.063C1096.8 386.208 1063.2 326.792 1028.4 341.646C994.8 356.5 960 445.625 925.2 534.75C891.6 623.875 856.8 713 823.2 713C788.4 713 754.8 623.875 720 549.604C685.2 475.333 651.6 415.917 616.8 371.354C583.2 326.792 548.4 297.083 514.8 341.646C480 386.208 445.2 505.042 411.6 475.333C376.8 445.625 343.2 267.375 308.4 222.813C274.8 178.25 240 267.375 205.2 356.5C171.6 445.625 136.8 534.75 103.2 505.042C68.3999 475.333 34.7999 326.792 16.7999 252.521L-5.72205e-05 178.25V7.62939e-06H16.7999C34.7999 7.62939e-06 68.3999 7.62939e-06 103.2 7.62939e-06C136.8 7.62939e-06 171.6 7.62939e-06 205.2 7.62939e-06C240 7.62939e-06 274.8 7.62939e-06 308.4 7.62939e-06C343.2 7.62939e-06 376.8 7.62939e-06 411.6 7.62939e-06C445.2 7.62939e-06 480 7.62939e-06 514.8 7.62939e-06C548.4 7.62939e-06 583.2 7.62939e-06 616.8 7.62939e-06C651.6 7.62939e-06 685.2 7.62939e-06 720 7.62939e-06C754.8 7.62939e-06 788.4 7.62939e-06 823.2 7.62939e-06C856.8 7.62939e-06 891.6 7.62939e-06 925.2 7.62939e-06C960 7.62939e-06 994.8 7.62939e-06 1028.4 7.62939e-06C1063.2 7.62939e-06 1096.8 7.62939e-06 1131.6 7.62939e-06C1165.2 7.62939e-06 1200 7.62939e-06 1234.8 7.62939e-06C1268.4 7.62939e-06 1303.2 7.62939e-06 1336.8 7.62939e-06C1371.6 7.62939e-06 1405.2 7.62939e-06 1423.2 7.62939e-06H1440V356.5Z" fill="#F9D24A"/>
</g>
</svg>
