<svg width="178" height="56" viewBox="0 0 178 56" fill="none" xmlns="http://www.w3.org/2000/svg">
<path d="M11.1578 20.073L16.244 23.0095C17.0162 23.4553 17.4919 24.2793 17.4919 25.171V31.0441C17.4919 31.9358 17.0162 32.7598 16.244 33.2056L11.1578 36.1421C10.3855 36.588 9.43408 36.588 8.66183 36.1421L3.57563 33.2056C2.80339 32.7598 2.32766 31.9358 2.32766 31.0441V25.171C2.32766 24.2793 2.80339 23.4553 3.57563 23.0095L8.66183 20.073C9.43408 19.6271 10.3855 19.6271 11.1578 20.073Z" fill="#FFE96A" stroke="#343434" stroke-width="2"/>
<path d="M29.774 20.073L34.8602 23.0095C35.6324 23.4553 36.1082 24.2793 36.1082 25.171V31.0441C36.1082 31.9358 35.6324 32.7598 34.8602 33.2056L29.774 36.1421C29.0017 36.588 28.0503 36.588 27.278 36.1421L22.1918 33.2056C21.4196 32.7598 20.9439 31.9358 20.9439 31.0441V25.171C20.9439 24.2793 21.4196 23.4553 22.1918 23.0095L27.278 20.073C28.0503 19.6271 29.0017 19.6271 29.774 20.073Z" fill="#FFE96A" stroke="#343434" stroke-width="2"/>
<path d="M48.1568 20.073L53.243 23.0095C54.0152 23.4553 54.491 24.2793 54.491 25.171V31.0441C54.491 31.9358 54.0152 32.7598 53.243 33.2056L48.1568 36.1421C47.3846 36.588 46.4331 36.588 45.6609 36.1421L40.5747 33.2056C39.8024 32.7598 39.3267 31.9358 39.3267 31.0441V25.171C39.3267 24.2793 39.8024 23.4553 40.5747 23.0095L45.6609 20.073C46.4331 19.6271 47.3846 19.6271 48.1568 20.073Z" fill="#FFE96A" stroke="#343434" stroke-width="2"/>
<path d="M20.4507 36.0964L25.5369 39.0329C26.3092 39.4788 26.7849 40.3028 26.7849 41.1945V47.0675C26.7849 47.9592 26.3092 48.7832 25.5369 49.2291L20.4507 52.1656C19.6785 52.6114 18.727 52.6114 17.9548 52.1656L12.8686 49.2291C12.0964 48.7832 11.6206 47.9592 11.6206 47.0675V41.1945C11.6206 40.3028 12.0964 39.4788 12.8686 39.0329L17.9548 36.0964C18.727 35.6506 19.6785 35.6506 20.4507 36.0964Z" fill="#FFE96A" stroke="#343434" stroke-width="2"/>
<path d="M38.9507 36.0964L44.0369 39.0329C44.8092 39.4788 45.2849 40.3028 45.2849 41.1945V47.0675C45.2849 47.9592 44.8092 48.7832 44.0369 49.2291L38.9507 52.1656C38.1785 52.6114 37.227 52.6114 36.4548 52.1656L31.3686 49.2291C30.5964 48.7832 30.1206 47.9592 30.1206 47.0675V41.1945C30.1206 40.3028 30.5964 39.4788 31.3686 39.0329L36.4548 36.0964C37.227 35.6506 38.1785 35.6506 38.9507 36.0964Z" fill="#FFE96A" stroke="#343434" stroke-width="2"/>
<path d="M20.4507 3.87522L25.5369 6.81173C26.3092 7.25759 26.7849 8.08157 26.7849 8.97328V14.8463C26.7849 15.738 26.3092 16.562 25.5369 17.0079L20.4507 19.9444C19.6785 20.3902 18.727 20.3902 17.9548 19.9444L12.8686 17.0079C12.0964 16.562 11.6206 15.738 11.6206 14.8463V8.97329C11.6206 8.08157 12.0964 7.25759 12.8686 6.81174L17.9548 3.87522C18.727 3.42936 19.6785 3.42936 20.4507 3.87522Z" fill="#FFE96A" stroke="#343434" stroke-width="2"/>
<path d="M38.9507 3.87522L44.0369 6.81173C44.8092 7.25759 45.2849 8.08157 45.2849 8.97328V14.8463C45.2849 15.738 44.8092 16.562 44.0369 17.0079L38.9507 19.9444C38.1785 20.3902 37.227 20.3902 36.4548 19.9444L31.3686 17.0079C30.5964 16.562 30.1206 15.738 30.1206 14.8463V8.97329C30.1206 8.08157 30.5964 7.25759 31.3686 6.81174L36.4548 3.87522C37.227 3.42936 38.1785 3.42936 38.9507 3.87522Z" fill="#FFE96A" stroke="#343434" stroke-width="2"/>
<path d="M72.8281 38.25C71.7344 38.25 71.0781 37.5625 71.0781 36.4375V17.0156C71.0781 15.8906 71.7344 15.2031 72.8281 15.2031C73.9062 15.2031 74.5781 15.8906 74.5781 17.0156V24.9844H86.1562V17.0156C86.1562 15.8906 86.8125 15.2031 87.9062 15.2031C88.9844 15.2031 89.6562 15.8906 89.6562 17.0156V36.4375C89.6562 37.5625 88.9844 38.25 87.9062 38.25C86.8125 38.25 86.1562 37.5625 86.1562 36.4375V28.0156H74.5781V36.4375C74.5781 37.5625 73.9062 38.25 72.8281 38.25ZM100.453 38.3125C95.75 38.3125 92.6562 35.0781 92.6562 29.7812C92.6562 24.5 95.7656 21.2656 100.453 21.2656C105.141 21.2656 108.25 24.5 108.25 29.7812C108.25 35.0781 105.156 38.3125 100.453 38.3125ZM100.453 35.5312C103.109 35.5312 104.812 33.4375 104.812 29.7812C104.812 26.1406 103.094 24.0469 100.453 24.0469C97.8125 24.0469 96.0938 26.1406 96.0938 29.7812C96.0938 33.4375 97.8125 35.5312 100.453 35.5312ZM112.547 38.2969C111.547 38.2969 110.859 37.625 110.859 36.5156V22.9688C110.859 21.9375 111.484 21.2656 112.469 21.2656C113.438 21.2656 114.109 21.9375 114.109 22.9844V24.2812H114.188C115.078 22.4062 116.797 21.2812 119.328 21.2812C122.953 21.2812 125.031 23.5938 125.031 27.3594V36.5156C125.031 37.625 124.328 38.2969 123.328 38.2969C122.344 38.2969 121.641 37.625 121.641 36.5156V28.0156C121.641 25.5469 120.484 24.1875 118.141 24.1875C115.766 24.1875 114.234 25.875 114.234 28.4219V36.5156C114.234 37.625 113.531 38.2969 112.547 38.2969ZM135.422 38.3125C130.469 38.3125 127.562 35.1719 127.562 29.8594C127.562 24.6406 130.531 21.2656 135.188 21.2656C139.562 21.2656 142.578 24.4219 142.578 28.9062C142.578 30 141.953 30.625 140.906 30.625H130.969V30.7031C130.969 33.7031 132.656 35.5781 135.344 35.5781C137.188 35.5781 138.344 34.9375 139.594 33.2344C139.953 32.8125 140.297 32.6406 140.781 32.6406C141.594 32.6406 142.188 33.1719 142.188 34.0156C142.188 34.2812 142.094 34.5938 141.953 34.9219C140.875 37.0781 138.484 38.3125 135.422 38.3125ZM130.984 28.2656H139.203C139.125 25.6875 137.516 23.9844 135.172 23.9844C132.844 23.9844 131.156 25.7031 130.984 28.2656ZM147.141 44.125C145.578 44.125 144.719 43.5469 144.719 42.5C144.719 41.7812 145.219 41.3125 146.031 41.3125C146.391 41.3125 146.516 41.3281 146.906 41.3281C147.844 41.3281 148.797 40.8125 149.406 39.125L149.719 38.1719L144.219 23.7812C144.094 23.4375 144.031 23.0938 144.031 22.8281C144.031 21.9062 144.766 21.2656 145.75 21.2656C146.594 21.2656 147.078 21.625 147.375 22.5625L151.562 34.9375H151.609L155.812 22.5625C156.094 21.6406 156.562 21.2656 157.422 21.2656C158.391 21.2656 159.062 21.9062 159.062 22.8125C159.062 23.0781 159 23.4219 158.891 23.75L153.188 38.8281C151.734 42.7812 150.188 44.125 147.141 44.125Z" fill="#343434"/>
</svg>
